<?xml version="1.0" encoding="UTF-8" standalone="no"?>
<svg
   xmlns:dc="http://purl.org/dc/elements/1.1/"
   xmlns:cc="http://creativecommons.org/ns#"
   xmlns:rdf="http://www.w3.org/1999/02/22-rdf-syntax-ns#"
   xmlns:svg="http://www.w3.org/2000/svg"
   xmlns="http://www.w3.org/2000/svg"
   version="1.1"
   id="svg2"
   viewBox="0 0 199.19096 194.97812"
   height="55.027161mm"
   width="56.216114mm">
  <defs
     id="defs4" />
  <metadata
     id="metadata7">
    <rdf:RDF>
      <cc:Work
         rdf:about="">
        <dc:format>image/svg+xml</dc:format>
        <dc:type
           rdf:resource="http://purl.org/dc/dcmitype/StillImage" />
        <dc:title></dc:title>
      </cc:Work>
    </rdf:RDF>
  </metadata>
  <g
     transform="translate(92.61534,-26.881635)"
     id="layer1">
    <path
       id="path3360"
       d="M 6.2401029,216.98446 C -56.161267,208.06835 -81.370267,178.66097 -90.244317,104.43128 c -4.65061,-38.901454 -3.61441,-43.526024 13.69883,-61.138144 17.25088,-17.54869 21.99707,-18.6677 60.10062,-14.17006 80.9749,9.55806 110.63366,38.74312 120.847897,118.917724 4.41069,34.62074 3.12383,40.05285 -13.492807,56.95635 -18.78179,19.10602 -26.85197,20.24857 -84.6701201,11.98731 z M 47.742793,176.77647 c 17.92725,-15.68658 19.12117,-19.49503 11.46809,-36.58169 -6.22819,-13.90537 -17.44495,-21.35261 -41.40393,-27.4897 -38.17503,-9.77853 -44.07855,-15.930214 -28.17363,-29.357994 9.63926986,-8.13799 15.0884299,-7.62482 33.56217,3.16068 15.4101,8.99686 24.34101,10.55009 29.644,5.15557 11.34998,-11.54592 -9.59104,-29.35145 -40.52616,-34.45819 -21.7609501,-3.59228 -29.23728,-1.07074 -45.31334,15.28285 -17.63076,17.93512 -18.37365,20.94943 -8.81878,35.782704 5.7386,8.90877 23.91648,20.64552 40.3952999,26.08166 30.1323301,9.94026 39.5079001,27.27151 19.0689801,35.25005 -5.99088,2.33861 -18.8805801,-1.07233 -28.64378,-7.57986 -28.23044,-18.81661 -48.83689,-14.52258 -34.40411,7.16924 18.87351,28.36602 65.09414,32.12971 93.14519,7.58468 z"
       style="fill:#1f888c" />
  </g>
</svg>
