<svg id="Слой_1" xmlns="http://www.w3.org/2000/svg" viewBox="159.5 210.2 179 78"><style>.st0{fill:#3f3f3f}.st1{fill:#229458}</style><g id="XMLID_4_"><g id="XMLID_263_"><path id="XMLID_298_" class="st0" d="M210.6 248.5V242h6.1v6.5h-1.4v-5.2H212v5.2h-1.4z"/><path id="XMLID_295_" class="st0" d="M226.2 242.8c.6.7.9 1.5.9 2.4 0 1-.3 1.8-.9 2.4-.6.7-1.4 1-2.3 1-1 0-1.8-.4-2.3-1.1v3.5h-1.4v-9h1.4v.9c.5-.7 1.3-1.1 2.3-1.1.9 0 1.7.3 2.3 1zm-4.6 1.4v2c.4.6 1.1 1.1 1.9 1.1.6 0 1.1-.2 1.5-.6.4-.4.6-.9.6-1.5s-.2-1.1-.6-1.5c-.4-.4-.9-.6-1.5-.6-.9 0-1.6.4-1.9 1.1z"/><path id="XMLID_292_" class="st0" d="M230.6 247.6c-.7-.7-1-1.5-1-2.4 0-1 .3-1.8 1-2.4.7-.7 1.5-1 2.6-1 1 0 1.9.3 2.6 1 .7.7 1 1.5 1 2.4 0 .9-.3 1.8-1 2.4-.7.7-1.5 1-2.6 1s-1.9-.3-2.6-1zm4.1-.9c.4-.4.6-.9.6-1.5s-.2-1.1-.6-1.5c-.4-.4-.9-.6-1.5-.6s-1.1.2-1.5.6c-.4.4-.6.9-.6 1.5s.2 1.1.6 1.5c.4.4.9.6 1.5.6.6.1 1.1-.1 1.5-.6z"/><path id="XMLID_289_" class="st0" d="M240.2 242.8c.6-.6 1.4-1 2.4-1 .7 0 1.2.2 1.7.5 1 .7 1.4 1.8 1.4 2.9v.4h-5c.2 1.1 1.1 1.7 2.5 1.7.8 0 1.4-.2 2.1-.6v1.2c-.6.4-1.4.6-2.4.6s-1.9-.3-2.6-1c-.7-.6-1-1.5-1-2.5 0-.8.3-1.6.9-2.2zm4.1 1.7c0-.4-.2-.8-.5-1.1-.3-.3-.7-.5-1.2-.5-1.1 0-1.7.7-1.8 1.5h3.5z"/><path id="XMLID_287_" class="st0" d="M248.8 248.5V242h1.4v2.5l2.6-2.5h1.8l-3.1 2.9 3.6 3.6h-2l-2.9-2.9v2.9h-1.4z"/><path id="XMLID_285_" class="st0" d="M259.1 248.5v-5.2h-2.2V242h5.8v1.3h-2.2v5.2h-1.4z"/><path id="XMLID_283_" class="st0" d="M265.4 248.5V242h1.4v2.5h3.3V242h1.4v6.5h-1.4v-2.7h-3.3v2.7h-1.4z"/><path id="XMLID_280_" class="st0" d="M275.6 247.6c-.7-.7-1-1.5-1-2.4 0-1 .3-1.8 1-2.4.7-.7 1.5-1 2.6-1 1 0 1.9.3 2.6 1 .7.7 1 1.5 1 2.4 0 .9-.3 1.8-1 2.4-.7.7-1.5 1-2.6 1s-1.9-.3-2.6-1zm4.1-.9c.4-.4.6-.9.6-1.5s-.2-1.1-.6-1.5c-.4-.4-.9-.6-1.5-.6s-1.1.2-1.5.6c-.4.4-.6.9-.6 1.5s.2 1.1.6 1.5c.4.4.9.6 1.5.6.6.1 1.1-.1 1.5-.6z"/><path id="XMLID_277_" class="st0" d="M285.2 242.8c.6-.6 1.4-1 2.4-1 .7 0 1.2.2 1.7.5 1 .7 1.4 1.8 1.4 2.9v.4h-5c.2 1.1 1.1 1.7 2.5 1.7.8 0 1.4-.2 2.1-.6v1.2c-.6.4-1.4.6-2.4.6s-1.9-.3-2.6-1c-.7-.6-1-1.5-1-2.5 0-.8.3-1.6.9-2.2zm4.1 1.7c0-.4-.2-.8-.5-1.1-.3-.3-.7-.5-1.2-.5-1.1 0-1.7.7-1.8 1.5h3.5z"/><path id="XMLID_274_" class="st0" d="M299.2 247.5c-.6-.8-.9-1.8-.9-3.1 0-1.5.4-2.6 1-3.3.3-.4.7-.7 1.3-1 .5-.3 1.1-.5 1.7-.6.6-.1 1.3-.3 2.2-.4v1.3c-1.4.3-2.3.5-2.7.6-1 .3-1.6.8-1.9 1.6-.1.3-.2.7-.2 1.1.5-.8 1.5-1.3 2.6-1.3.9 0 1.6.3 2.1.8.6.5.8 1.3.8 2.1 0 1-.3 1.8-1 2.4-.6.6-1.4.9-2.4.9-1.1 0-2-.4-2.6-1.1zm4-.7c.4-.4.5-.8.5-1.4 0-1.1-.8-1.8-1.9-1.8-.9 0-1.8.6-2.2 1.3.1 1.6.8 2.5 2.2 2.5.6 0 1-.2 1.4-.6z"/><path id="XMLID_271_" class="st0" d="M312 247.8c-.6-.5-.9-1.2-1.1-2.1h-1.3v2.7h-1.4V242h1.4v2.5h1.3c.1-.8.5-1.4 1.1-2 .6-.5 1.3-.8 2.2-.8 1 0 1.8.3 2.4 1 .6.6.9 1.5.9 2.4 0 1-.3 1.8-.9 2.4-.6.6-1.4 1-2.4 1-.9.1-1.6-.1-2.2-.7zm3.6-4.1c-.4-.4-.8-.6-1.4-.6-.6 0-1 .2-1.4.6-.4.4-.5.9-.5 1.5s.2 1.1.5 1.5c.4.4.8.6 1.4.6.6 0 1-.2 1.4-.6.4-.4.5-.9.5-1.5s-.2-1.1-.5-1.5z"/><path id="XMLID_267_" class="st0" d="M326.6 242.8c.6.7.9 1.5.9 2.4 0 1-.3 1.8-.9 2.4-.6.7-1.4 1-2.3 1-1 0-1.8-.4-2.3-1.1v3.5h-1.4v-9h1.4v.9c.5-.7 1.3-1.1 2.3-1.1.9 0 1.7.3 2.3 1zm-4.6 1.4v2c.4.6 1.1 1.1 1.9 1.1.6 0 1.1-.2 1.5-.6.4-.4.6-.9.6-1.5s-.2-1.1-.6-1.5c-.4-.4-.9-.6-1.5-.6-.9 0-1.6.4-1.9 1.1z"/><path id="XMLID_264_" class="st0" d="M331 247.6c-.7-.7-1-1.5-1-2.4 0-1 .3-1.8 1-2.4.7-.7 1.5-1 2.6-1 1 0 1.9.3 2.6 1 .7.7 1 1.5 1 2.4 0 .9-.3 1.8-1 2.4-.7.7-1.5 1-2.6 1s-1.9-.3-2.6-1zm4.1-.9c.4-.4.6-.9.6-1.5s-.2-1.1-.6-1.5c-.4-.4-.9-.6-1.5-.6s-1.1.2-1.5.6c-.4.4-.6.9-.6 1.5s.2 1.1.6 1.5c.4.4.9.6 1.5.6.6.1 1.1-.1 1.5-.6z"/></g><g id="XMLID_5_"><g id="XMLID_217_"><path id="XMLID_255_" class="st1" d="M214.5 288.2h-3.3v-31.1h3.3v3.5c2.1-2.7 4.9-4.1 8.6-4.1 3.3 0 6 1.1 8 3.4 2.1 2.2 3.1 5 3.1 8.2 0 3.2-1.1 6-3.1 8.2-2.1 2.2-4.8 3.4-8 3.4-3.7 0-6.5-1.4-8.6-4.1v12.6zm0-16.5c1.3 2.9 4.5 5 7.8 5 2.4 0 4.5-.8 6.1-2.5 1.6-1.7 2.4-3.7 2.4-6.2 0-2.4-.8-4.5-2.4-6.1-1.6-1.6-3.7-2.5-6.1-2.5-3.4 0-6.5 2.1-7.8 5v7.3z"/><path id="XMLID_249_" class="st1" d="M243.7 257.1v9.1l10.6-9.1h4.5l-11.7 9.9 13.4 12.1h-4.7l-12-10.9v10.9h-3.3v-22h3.2z"/><path id="XMLID_241_" class="st1" d="M274.2 256.5c3.5 0 6.4 1.1 8.6 3.4 2.3 2.2 3.4 5 3.4 8.2 0 3.2-1.1 5.9-3.4 8.2-2.3 2.2-5.1 3.4-8.6 3.4s-6.4-1.1-8.6-3.4c-2.3-2.2-3.4-5-3.4-8.2 0-3.2 1.1-5.9 3.4-8.2 2.2-2.2 5-3.4 8.6-3.4zm6.1 5.5c-1.6-1.6-3.7-2.5-6.2-2.5s-4.5.8-6.2 2.5c-1.6 1.6-2.4 3.7-2.4 6.2 0 2.4.8 4.5 2.4 6.1 1.6 1.6 3.7 2.5 6.2 2.5s4.5-.8 6.2-2.5c1.6-1.6 2.4-3.7 2.4-6.1 0-2.5-.8-4.6-2.4-6.2z"/><path id="XMLID_235_" class="st1" d="M292.3 279.1v-22h3.3v9.3h13.6v-9.3h3.3v22h-3.3v-9.8h-13.6v9.8h-3.3z"/><path id="XMLID_224_" class="st1" d="M214.5 281h-3.3v-23.9h3.3v3.5c2.1-2.7 4.9-4.1 8.6-4.1 3.3 0 6 1.1 8 3.4 2.1 2.2 3.1 5 3.1 8.2 0 3.2-1.1 6-3.1 8.2-2.1 2.2-4.8 3.4-8 3.4-3.7 0-6.5-1.4-8.6-4.1v5.4zm0-9.3c1.3 2.9 4.5 5 7.8 5 2.4 0 4.5-.8 6.1-2.5 1.6-1.7 2.4-3.7 2.4-6.2 0-2.4-.8-4.5-2.4-6.1-1.6-1.6-3.7-2.5-6.1-2.5-3.4 0-6.5 2.1-7.8 5v7.3z"/><path id="XMLID_218_" class="st1" d="M326.1 279v-19.1h-8V257h19.4v2.9h-8V279h-3.4z"/></g><g id="XMLID_74_"><path id="XMLID_216_" class="st1" d="M174.9 252.1l7.8-15.3 6.4 12.8 5.5-1-12-38.4-13.3 43z"/><path id="XMLID_215_" class="st1" d="M198.4 257.2c3.9-.3 6.9-1.9 6.9-3.9 0-2.2-3.6-4.7-8-4l-29 5.2c-4.1.5-6.5-.9-6.5-2.3s2.3-2.5 5.5-2.9c-3.9.3-6.9 1.9-6.9 3.9 0 2.1 3.4 4.5 7.6 4l-6.9 22.1 11.5-22.8 18.3-3.3 13.1 26.1-8.4-26.9 1.8-.3c4-.4 6.3.9 6.3 2.3.1 1.3-2.1 2.4-5.3 2.8z"/></g></g></g></svg>